<mxfile host="65bd71144e">
    <diagram id="17E1QClF59SkScVoVV1Y" name="PÃ¡gina-1">
        <mxGraphModel dx="759" dy="327" grid="1" gridSize="10" guides="1" tooltips="1" connect="1" arrows="1" fold="1" page="1" pageScale="1" pageWidth="827" pageHeight="1169" math="0" shadow="0">
            <root>
                <mxCell id="0"/>
                <mxCell id="1" parent="0"/>
                <mxCell id="2" value="User" style="swimlane;fontStyle=1;align=center;verticalAlign=top;childLayout=stackLayout;horizontal=1;startSize=26;horizontalStack=0;resizeParent=1;resizeParentMax=0;resizeLast=0;collapsible=1;marginBottom=0;" vertex="1" parent="1">
                    <mxGeometry x="310" y="210" width="160" height="242" as="geometry"/>
                </mxCell>
                <mxCell id="11" value="id: STRING" style="text;strokeColor=none;fillColor=none;align=left;verticalAlign=top;spacingLeft=4;spacingRight=4;overflow=hidden;rotatable=0;points=[[0,0.5],[1,0.5]];portConstraint=eastwest;" vertex="1" parent="2">
                    <mxGeometry y="26" width="160" height="26" as="geometry"/>
                </mxCell>
                <mxCell id="20" value="name: STRING" style="text;strokeColor=none;fillColor=none;align=left;verticalAlign=top;spacingLeft=4;spacingRight=4;overflow=hidden;rotatable=0;points=[[0,0.5],[1,0.5]];portConstraint=eastwest;" vertex="1" parent="2">
                    <mxGeometry y="52" width="160" height="26" as="geometry"/>
                </mxCell>
                <mxCell id="13" value="phone: STRING" style="text;strokeColor=none;fillColor=none;align=left;verticalAlign=top;spacingLeft=4;spacingRight=4;overflow=hidden;rotatable=0;points=[[0,0.5],[1,0.5]];portConstraint=eastwest;" vertex="1" parent="2">
                    <mxGeometry y="78" width="160" height="26" as="geometry"/>
                </mxCell>
                <mxCell id="21" value="phone_optional: STRING" style="text;strokeColor=none;fillColor=none;align=left;verticalAlign=top;spacingLeft=4;spacingRight=4;overflow=hidden;rotatable=0;points=[[0,0.5],[1,0.5]];portConstraint=eastwest;" vertex="1" parent="2">
                    <mxGeometry y="104" width="160" height="26" as="geometry"/>
                </mxCell>
                <mxCell id="14" value="emai: STRING" style="text;strokeColor=none;fillColor=none;align=left;verticalAlign=top;spacingLeft=4;spacingRight=4;overflow=hidden;rotatable=0;points=[[0,0.5],[1,0.5]];portConstraint=eastwest;" vertex="1" parent="2">
                    <mxGeometry y="130" width="160" height="26" as="geometry"/>
                </mxCell>
                <mxCell id="3" value="login: STRING" style="text;strokeColor=none;fillColor=none;align=left;verticalAlign=top;spacingLeft=4;spacingRight=4;overflow=hidden;rotatable=0;points=[[0,0.5],[1,0.5]];portConstraint=eastwest;" vertex="1" parent="2">
                    <mxGeometry y="156" width="160" height="26" as="geometry"/>
                </mxCell>
                <mxCell id="6" value="password: STRING" style="text;strokeColor=none;fillColor=none;align=left;verticalAlign=top;spacingLeft=4;spacingRight=4;overflow=hidden;rotatable=0;points=[[0,0.5],[1,0.5]];portConstraint=eastwest;" vertex="1" parent="2">
                    <mxGeometry y="182" width="160" height="26" as="geometry"/>
                </mxCell>
                <mxCell id="4" value="" style="line;strokeWidth=1;fillColor=none;align=left;verticalAlign=middle;spacingTop=-1;spacingLeft=3;spacingRight=3;rotatable=0;labelPosition=right;points=[];portConstraint=eastwest;strokeColor=inherit;" vertex="1" parent="2">
                    <mxGeometry y="208" width="160" height="8" as="geometry"/>
                </mxCell>
                <mxCell id="5" value="login() : BOOL" style="text;strokeColor=none;fillColor=none;align=left;verticalAlign=top;spacingLeft=4;spacingRight=4;overflow=hidden;rotatable=0;points=[[0,0.5],[1,0.5]];portConstraint=eastwest;" vertex="1" parent="2">
                    <mxGeometry y="216" width="160" height="26" as="geometry"/>
                </mxCell>
                <mxCell id="7" value="Child" style="swimlane;fontStyle=1;align=center;verticalAlign=top;childLayout=stackLayout;horizontal=1;startSize=26;horizontalStack=0;resizeParent=1;resizeParentMax=0;resizeLast=0;collapsible=1;marginBottom=0;" vertex="1" parent="1">
                    <mxGeometry x="520" y="210" width="160" height="164" as="geometry"/>
                </mxCell>
                <mxCell id="50" value="id: STRING" style="text;strokeColor=none;fillColor=none;align=left;verticalAlign=top;spacingLeft=4;spacingRight=4;overflow=hidden;rotatable=0;points=[[0,0.5],[1,0.5]];portConstraint=eastwest;" vertex="1" parent="7">
                    <mxGeometry y="26" width="160" height="26" as="geometry"/>
                </mxCell>
                <mxCell id="8" value="name: STRING" style="text;strokeColor=none;fillColor=none;align=left;verticalAlign=top;spacingLeft=4;spacingRight=4;overflow=hidden;rotatable=0;points=[[0,0.5],[1,0.5]];portConstraint=eastwest;" vertex="1" parent="7">
                    <mxGeometry y="52" width="160" height="26" as="geometry"/>
                </mxCell>
                <mxCell id="22" value="parents: LIST[Parent]" style="text;strokeColor=none;fillColor=none;align=left;verticalAlign=top;spacingLeft=4;spacingRight=4;overflow=hidden;rotatable=0;points=[[0,0.5],[1,0.5]];portConstraint=eastwest;" vertex="1" parent="7">
                    <mxGeometry y="78" width="160" height="26" as="geometry"/>
                </mxCell>
                <mxCell id="52" value="presences: LIST[Presence]" style="text;strokeColor=none;fillColor=none;align=left;verticalAlign=top;spacingLeft=4;spacingRight=4;overflow=hidden;rotatable=0;points=[[0,0.5],[1,0.5]];portConstraint=eastwest;" vertex="1" parent="7">
                    <mxGeometry y="104" width="160" height="26" as="geometry"/>
                </mxCell>
                <mxCell id="9" value="" style="line;strokeWidth=1;fillColor=none;align=left;verticalAlign=middle;spacingTop=-1;spacingLeft=3;spacingRight=3;rotatable=0;labelPosition=right;points=[];portConstraint=eastwest;strokeColor=inherit;" vertex="1" parent="7">
                    <mxGeometry y="130" width="160" height="8" as="geometry"/>
                </mxCell>
                <mxCell id="10" value="+ method(type): type" style="text;strokeColor=none;fillColor=none;align=left;verticalAlign=top;spacingLeft=4;spacingRight=4;overflow=hidden;rotatable=0;points=[[0,0.5],[1,0.5]];portConstraint=eastwest;" vertex="1" parent="7">
                    <mxGeometry y="138" width="160" height="26" as="geometry"/>
                </mxCell>
                <mxCell id="16" value="Parent (User)" style="swimlane;fontStyle=1;align=center;verticalAlign=top;childLayout=stackLayout;horizontal=1;startSize=26;horizontalStack=0;resizeParent=1;resizeParentMax=0;resizeLast=0;collapsible=1;marginBottom=0;" vertex="1" parent="1">
                    <mxGeometry x="530" y="438" width="319" height="112" as="geometry"/>
                </mxCell>
                <mxCell id="15" value="children: LIST[Child]" style="text;strokeColor=none;fillColor=none;align=left;verticalAlign=top;spacingLeft=4;spacingRight=4;overflow=hidden;rotatable=0;points=[[0,0.5],[1,0.5]];portConstraint=eastwest;" vertex="1" parent="16">
                    <mxGeometry y="26" width="319" height="26" as="geometry"/>
                </mxCell>
                <mxCell id="18" value="" style="line;strokeWidth=1;fillColor=none;align=left;verticalAlign=middle;spacingTop=-1;spacingLeft=3;spacingRight=3;rotatable=0;labelPosition=right;points=[];portConstraint=eastwest;strokeColor=inherit;" vertex="1" parent="16">
                    <mxGeometry y="52" width="319" height="8" as="geometry"/>
                </mxCell>
                <mxCell id="19" value="check_child_in_school(LIST[id]) : BOOL" style="text;strokeColor=none;fillColor=none;align=left;verticalAlign=top;spacingLeft=4;spacingRight=4;overflow=hidden;rotatable=0;points=[[0,0.5],[1,0.5]];portConstraint=eastwest;" vertex="1" parent="16">
                    <mxGeometry y="60" width="319" height="26" as="geometry"/>
                </mxCell>
                <mxCell id="27" value="check_child_in_school(LIST[id]) : LIST[LIST[Presence]]" style="text;strokeColor=none;fillColor=none;align=left;verticalAlign=top;spacingLeft=4;spacingRight=4;overflow=hidden;rotatable=0;points=[[0,0.5],[1,0.5]];portConstraint=eastwest;" vertex="1" parent="16">
                    <mxGeometry y="86" width="319" height="26" as="geometry"/>
                </mxCell>
                <mxCell id="23" value="Teacher(User)" style="swimlane;fontStyle=1;align=center;verticalAlign=top;childLayout=stackLayout;horizontal=1;startSize=26;horizontalStack=0;resizeParent=1;resizeParentMax=0;resizeLast=0;collapsible=1;marginBottom=0;" vertex="1" parent="1">
                    <mxGeometry x="880" y="370" width="160" height="86" as="geometry"/>
                </mxCell>
                <mxCell id="24" value="students: LIST[Child]" style="text;strokeColor=none;fillColor=none;align=left;verticalAlign=top;spacingLeft=4;spacingRight=4;overflow=hidden;rotatable=0;points=[[0,0.5],[1,0.5]];portConstraint=eastwest;" vertex="1" parent="23">
                    <mxGeometry y="26" width="160" height="26" as="geometry"/>
                </mxCell>
                <mxCell id="25" value="" style="line;strokeWidth=1;fillColor=none;align=left;verticalAlign=middle;spacingTop=-1;spacingLeft=3;spacingRight=3;rotatable=0;labelPosition=right;points=[];portConstraint=eastwest;strokeColor=inherit;" vertex="1" parent="23">
                    <mxGeometry y="52" width="160" height="8" as="geometry"/>
                </mxCell>
                <mxCell id="26" value="+ method(type): type" style="text;strokeColor=none;fillColor=none;align=left;verticalAlign=top;spacingLeft=4;spacingRight=4;overflow=hidden;rotatable=0;points=[[0,0.5],[1,0.5]];portConstraint=eastwest;" vertex="1" parent="23">
                    <mxGeometry y="60" width="160" height="26" as="geometry"/>
                </mxCell>
                <mxCell id="28" value="Presence" style="swimlane;fontStyle=1;align=center;verticalAlign=top;childLayout=stackLayout;horizontal=1;startSize=26;horizontalStack=0;resizeParent=1;resizeParentMax=0;resizeLast=0;collapsible=1;marginBottom=0;" vertex="1" parent="1">
                    <mxGeometry x="760" y="670" width="160" height="112" as="geometry"/>
                </mxCell>
                <mxCell id="29" value="- type: STRING ['P', 'F']" style="text;strokeColor=none;fillColor=none;align=left;verticalAlign=top;spacingLeft=4;spacingRight=4;overflow=hidden;rotatable=0;points=[[0,0.5],[1,0.5]];portConstraint=eastwest;" vertex="1" parent="28">
                    <mxGeometry y="26" width="160" height="26" as="geometry"/>
                </mxCell>
                <mxCell id="32" value="- date: DATETIME" style="text;strokeColor=none;fillColor=none;align=left;verticalAlign=top;spacingLeft=4;spacingRight=4;overflow=hidden;rotatable=0;points=[[0,0.5],[1,0.5]];portConstraint=eastwest;" vertex="1" parent="28">
                    <mxGeometry y="52" width="160" height="26" as="geometry"/>
                </mxCell>
                <mxCell id="30" value="" style="line;strokeWidth=1;fillColor=none;align=left;verticalAlign=middle;spacingTop=-1;spacingLeft=3;spacingRight=3;rotatable=0;labelPosition=right;points=[];portConstraint=eastwest;strokeColor=inherit;" vertex="1" parent="28">
                    <mxGeometry y="78" width="160" height="8" as="geometry"/>
                </mxCell>
                <mxCell id="31" value="+ method(type): type" style="text;strokeColor=none;fillColor=none;align=left;verticalAlign=top;spacingLeft=4;spacingRight=4;overflow=hidden;rotatable=0;points=[[0,0.5],[1,0.5]];portConstraint=eastwest;" vertex="1" parent="28">
                    <mxGeometry y="86" width="160" height="26" as="geometry"/>
                </mxCell>
                <mxCell id="33" value="Coordination(User)" style="swimlane;fontStyle=1;align=center;verticalAlign=top;childLayout=stackLayout;horizontal=1;startSize=26;horizontalStack=0;resizeParent=1;resizeParentMax=0;resizeLast=0;collapsible=1;marginBottom=0;" vertex="1" parent="1">
                    <mxGeometry x="280" y="585" width="210" height="440" as="geometry"/>
                </mxCell>
                <mxCell id="34" value="+ field: type" style="text;strokeColor=none;fillColor=none;align=left;verticalAlign=top;spacingLeft=4;spacingRight=4;overflow=hidden;rotatable=0;points=[[0,0.5],[1,0.5]];portConstraint=eastwest;" vertex="1" parent="33">
                    <mxGeometry y="26" width="210" height="26" as="geometry"/>
                </mxCell>
                <mxCell id="35" value="" style="line;strokeWidth=1;fillColor=none;align=left;verticalAlign=middle;spacingTop=-1;spacingLeft=3;spacingRight=3;rotatable=0;labelPosition=right;points=[];portConstraint=eastwest;strokeColor=inherit;" vertex="1" parent="33">
                    <mxGeometry y="52" width="210" height="8" as="geometry"/>
                </mxCell>
                <mxCell id="41" value="add_child(Child): BOOL" style="text;strokeColor=none;fillColor=none;align=left;verticalAlign=top;spacingLeft=4;spacingRight=4;overflow=hidden;rotatable=0;points=[[0,0.5],[1,0.5]];portConstraint=eastwest;" vertex="1" parent="33">
                    <mxGeometry y="60" width="210" height="26" as="geometry"/>
                </mxCell>
                <mxCell id="42" value="get_child(id): Child" style="text;strokeColor=none;fillColor=none;align=left;verticalAlign=top;spacingLeft=4;spacingRight=4;overflow=hidden;rotatable=0;points=[[0,0.5],[1,0.5]];portConstraint=eastwest;" vertex="1" parent="33">
                    <mxGeometry y="86" width="210" height="26" as="geometry"/>
                </mxCell>
                <mxCell id="43" value="get_all_child(): LIST[Child]" style="text;strokeColor=none;fillColor=none;align=left;verticalAlign=top;spacingLeft=4;spacingRight=4;overflow=hidden;rotatable=0;points=[[0,0.5],[1,0.5]];portConstraint=eastwest;" vertex="1" parent="33">
                    <mxGeometry y="112" width="210" height="26" as="geometry"/>
                </mxCell>
                <mxCell id="62" value="update_child(Child): BOOL" style="text;strokeColor=none;fillColor=none;align=left;verticalAlign=top;spacingLeft=4;spacingRight=4;overflow=hidden;rotatable=0;points=[[0,0.5],[1,0.5]];portConstraint=eastwest;" vertex="1" parent="33">
                    <mxGeometry y="138" width="210" height="26" as="geometry"/>
                </mxCell>
                <mxCell id="36" value="remove_child(id): BOOL" style="text;strokeColor=none;fillColor=none;align=left;verticalAlign=top;spacingLeft=4;spacingRight=4;overflow=hidden;rotatable=0;points=[[0,0.5],[1,0.5]];portConstraint=eastwest;" vertex="1" parent="33">
                    <mxGeometry y="164" width="210" height="26" as="geometry"/>
                </mxCell>
                <mxCell id="44" value="" style="line;strokeWidth=1;fillColor=none;align=left;verticalAlign=middle;spacingTop=-1;spacingLeft=3;spacingRight=3;rotatable=0;labelPosition=right;points=[];portConstraint=eastwest;strokeColor=inherit;" vertex="1" parent="33">
                    <mxGeometry y="190" width="210" height="8" as="geometry"/>
                </mxCell>
                <mxCell id="40" value="add_parent(Parent): BOOL" style="text;strokeColor=none;fillColor=none;align=left;verticalAlign=top;spacingLeft=4;spacingRight=4;overflow=hidden;rotatable=0;points=[[0,0.5],[1,0.5]];portConstraint=eastwest;" vertex="1" parent="33">
                    <mxGeometry y="198" width="210" height="26" as="geometry"/>
                </mxCell>
                <mxCell id="38" value="get_parent(id): Parent" style="text;strokeColor=none;fillColor=none;align=left;verticalAlign=top;spacingLeft=4;spacingRight=4;overflow=hidden;rotatable=0;points=[[0,0.5],[1,0.5]];portConstraint=eastwest;" vertex="1" parent="33">
                    <mxGeometry y="224" width="210" height="26" as="geometry"/>
                </mxCell>
                <mxCell id="39" value="get_all_parent(): LIST[Parent]" style="text;strokeColor=none;fillColor=none;align=left;verticalAlign=top;spacingLeft=4;spacingRight=4;overflow=hidden;rotatable=0;points=[[0,0.5],[1,0.5]];portConstraint=eastwest;" vertex="1" parent="33">
                    <mxGeometry y="250" width="210" height="26" as="geometry"/>
                </mxCell>
                <mxCell id="63" value="update_parent(Parent): BOOL" style="text;strokeColor=none;fillColor=none;align=left;verticalAlign=top;spacingLeft=4;spacingRight=4;overflow=hidden;rotatable=0;points=[[0,0.5],[1,0.5]];portConstraint=eastwest;" vertex="1" parent="33">
                    <mxGeometry y="276" width="210" height="26" as="geometry"/>
                </mxCell>
                <mxCell id="37" value="remove_parent(id): BOOL" style="text;strokeColor=none;fillColor=none;align=left;verticalAlign=top;spacingLeft=4;spacingRight=4;overflow=hidden;rotatable=0;points=[[0,0.5],[1,0.5]];portConstraint=eastwest;" vertex="1" parent="33">
                    <mxGeometry y="302" width="210" height="26" as="geometry"/>
                </mxCell>
                <mxCell id="46" value="" style="line;strokeWidth=1;fillColor=none;align=left;verticalAlign=middle;spacingTop=-1;spacingLeft=3;spacingRight=3;rotatable=0;labelPosition=right;points=[];portConstraint=eastwest;strokeColor=inherit;" vertex="1" parent="33">
                    <mxGeometry y="328" width="210" height="8" as="geometry"/>
                </mxCell>
                <mxCell id="45" value="add_teacher(Teacher): BOOL" style="text;strokeColor=none;fillColor=none;align=left;verticalAlign=top;spacingLeft=4;spacingRight=4;overflow=hidden;rotatable=0;points=[[0,0.5],[1,0.5]];portConstraint=eastwest;" vertex="1" parent="33">
                    <mxGeometry y="336" width="210" height="26" as="geometry"/>
                </mxCell>
                <mxCell id="47" value="remove_teacher(): BOOL" style="text;strokeColor=none;fillColor=none;align=left;verticalAlign=top;spacingLeft=4;spacingRight=4;overflow=hidden;rotatable=0;points=[[0,0.5],[1,0.5]];portConstraint=eastwest;" vertex="1" parent="33">
                    <mxGeometry y="362" width="210" height="26" as="geometry"/>
                </mxCell>
                <mxCell id="48" value="get_teacher(): Teacher" style="text;strokeColor=none;fillColor=none;align=left;verticalAlign=top;spacingLeft=4;spacingRight=4;overflow=hidden;rotatable=0;points=[[0,0.5],[1,0.5]];portConstraint=eastwest;" vertex="1" parent="33">
                    <mxGeometry y="388" width="210" height="26" as="geometry"/>
                </mxCell>
                <mxCell id="49" value="get_all_teacher(): LIST[Teacher]" style="text;strokeColor=none;fillColor=none;align=left;verticalAlign=top;spacingLeft=4;spacingRight=4;overflow=hidden;rotatable=0;points=[[0,0.5],[1,0.5]];portConstraint=eastwest;" vertex="1" parent="33">
                    <mxGeometry y="414" width="210" height="26" as="geometry"/>
                </mxCell>
                <mxCell id="53" value="Admin(Coordination)" style="swimlane;fontStyle=1;align=center;verticalAlign=top;childLayout=stackLayout;horizontal=1;startSize=26;horizontalStack=0;resizeParent=1;resizeParentMax=0;resizeLast=0;collapsible=1;marginBottom=0;" vertex="1" parent="1">
                    <mxGeometry x="10" y="410" width="270" height="190" as="geometry"/>
                </mxCell>
                <mxCell id="54" value="SECRET_KEY: STRING" style="text;strokeColor=none;fillColor=none;align=left;verticalAlign=top;spacingLeft=4;spacingRight=4;overflow=hidden;rotatable=0;points=[[0,0.5],[1,0.5]];portConstraint=eastwest;" vertex="1" parent="53">
                    <mxGeometry y="26" width="270" height="26" as="geometry"/>
                </mxCell>
                <mxCell id="56" value="" style="line;strokeWidth=1;fillColor=none;align=left;verticalAlign=middle;spacingTop=-1;spacingLeft=3;spacingRight=3;rotatable=0;labelPosition=right;points=[];portConstraint=eastwest;strokeColor=inherit;" vertex="1" parent="53">
                    <mxGeometry y="52" width="270" height="8" as="geometry"/>
                </mxCell>
                <mxCell id="57" value="add_coordination(Coordination): BOOL" style="text;strokeColor=none;fillColor=none;align=left;verticalAlign=top;spacingLeft=4;spacingRight=4;overflow=hidden;rotatable=0;points=[[0,0.5],[1,0.5]];portConstraint=eastwest;" vertex="1" parent="53">
                    <mxGeometry y="60" width="270" height="26" as="geometry"/>
                </mxCell>
                <mxCell id="60" value="get_coordination(id): Coordination" style="text;strokeColor=none;fillColor=none;align=left;verticalAlign=top;spacingLeft=4;spacingRight=4;overflow=hidden;rotatable=0;points=[[0,0.5],[1,0.5]];portConstraint=eastwest;" vertex="1" parent="53">
                    <mxGeometry y="86" width="270" height="26" as="geometry"/>
                </mxCell>
                <mxCell id="59" value="get_all_coordination(): LIST[Coordination]" style="text;strokeColor=none;fillColor=none;align=left;verticalAlign=top;spacingLeft=4;spacingRight=4;overflow=hidden;rotatable=0;points=[[0,0.5],[1,0.5]];portConstraint=eastwest;" vertex="1" parent="53">
                    <mxGeometry y="112" width="270" height="26" as="geometry"/>
                </mxCell>
                <mxCell id="61" value="update_coordination(Coordination): BOOL" style="text;strokeColor=none;fillColor=none;align=left;verticalAlign=top;spacingLeft=4;spacingRight=4;overflow=hidden;rotatable=0;points=[[0,0.5],[1,0.5]];portConstraint=eastwest;" vertex="1" parent="53">
                    <mxGeometry y="138" width="270" height="26" as="geometry"/>
                </mxCell>
                <mxCell id="58" value="remove_coordination(id): BOOL" style="text;strokeColor=none;fillColor=none;align=left;verticalAlign=top;spacingLeft=4;spacingRight=4;overflow=hidden;rotatable=0;points=[[0,0.5],[1,0.5]];portConstraint=eastwest;" vertex="1" parent="53">
                    <mxGeometry y="164" width="270" height="26" as="geometry"/>
                </mxCell>
            </root>
        </mxGraphModel>
    </diagram>
</mxfile>